<svg width="311" height="21" viewBox="0 0 311 21" fill="none" xmlns="http://www.w3.org/2000/svg">
<g opacity="0.6" clip-path="url(#clip0_1_122)">
<path fill-rule="evenodd" clip-rule="evenodd" d="M19.3996 20.4248L25.1031 16.2222V20.4248H29.5684V5.00269H25.0281L19.287 9.24284V5.00269H14.7842V20.4248H19.3996ZM20.6378 17.8357L16.6979 12.5074L18.424 11.2316C19.0619 10.7438 19.5121 10.4436 19.7373 10.3685C20.1125 10.2184 20.4877 10.1809 20.9005 10.2935C21.3133 10.4061 21.6885 10.7063 21.9887 11.119C22.2513 11.4567 22.3639 11.7569 22.439 12.0946C22.4765 12.3948 22.439 12.695 22.3639 12.9577C22.2889 13.2203 22.1388 13.4079 21.9887 13.5956C21.7635 13.8582 21.4258 14.1584 20.938 14.4961L20.2251 15.0214L21.726 17.0477L20.6378 17.8357ZM18.424 12.6199L19.5497 14.1209L20.15 13.7081C20.5628 13.3704 20.8255 13.1453 20.938 12.9952C21.0506 12.8076 21.0881 12.6575 21.0881 12.4699C21.0881 12.2822 21.0131 12.1321 20.9005 11.9445C20.7504 11.7569 20.5628 11.6443 20.3752 11.6068C20.15 11.5693 19.9624 11.6068 19.7373 11.6819C19.6247 11.7569 19.3245 11.9445 18.9493 12.2447L18.424 12.6199ZM20.7504 9.5055L21.9512 8.60494L25.2532 10.4436L24.2776 6.87886L25.4033 6.05334L26.6041 11.4567C26.7166 12.0196 26.7917 12.5074 26.7542 12.8826C26.7166 13.2578 26.529 13.5956 26.2288 13.8207C25.8911 14.0458 25.6285 14.2335 25.4033 14.3085L24.8405 13.5205C24.9906 13.4079 25.1407 13.2954 25.2532 13.2203C25.5159 13.0327 25.6285 12.8451 25.666 12.695C25.741 12.5074 25.666 12.2447 25.5534 11.8695L20.7504 9.5055Z" fill="#FEFEFE"/>
<path d="M25.0282 0.574951H40.0001V4.36482H34.8969V20.4249H30.1314V4.36482H25.0282V0.574951Z" fill="#FEFEFE"/>
<path d="M4.76548 17.1228H7.16698C8.66792 17.1228 9.41839 16.5975 9.41839 15.5093C9.41839 14.5712 8.66792 14.0834 7.16698 14.0834H4.76548V17.1228ZM4.76548 10.969H7.27955C9.606 10.969 11.3696 11.3817 12.4578 12.2073C13.621 13.0328 14.1839 14.3086 14.1839 16.0347C14.1839 17.4605 13.6585 18.5487 12.6079 19.2992C11.5947 20.0497 10.0938 20.4249 8.18011 20.4249H0V5.04028H14.1088V8.15473H4.76548V10.969Z" fill="#FEFEFE"/>
<path fill-rule="evenodd" clip-rule="evenodd" d="M24.6529 0.574951H12.4578V4.36482H24.6529V0.574951Z" fill="#FEFEFE"/>
<path fill-rule="evenodd" clip-rule="evenodd" d="M11.8199 0.612549H5.74109V4.40242H11.8199V0.612549Z" fill="#FEFEFE"/>
<path fill-rule="evenodd" clip-rule="evenodd" d="M5.25331 0.574951H2.17639V4.36482H5.25331V0.574951Z" fill="#FEFEFE"/>
<path fill-rule="evenodd" clip-rule="evenodd" d="M1.57594 0.574951H0.0374756V4.36482H1.57594V0.574951Z" fill="#FEFEFE"/>
</g>
<path opacity="0.6" d="M53.233 15.5V5.31818H56.6733C57.4721 5.31818 58.125 5.46236 58.6321 5.75071C59.1425 6.03575 59.5204 6.42188 59.7656 6.90909C60.0109 7.39631 60.1335 7.93987 60.1335 8.53977C60.1335 9.13968 60.0109 9.6849 59.7656 10.1754C59.5237 10.666 59.1491 11.0571 58.642 11.3487C58.1349 11.6371 57.4853 11.7812 56.6932 11.7812H54.2273V10.6875H56.6534C57.2003 10.6875 57.6394 10.593 57.9709 10.4041C58.3023 10.2152 58.5426 9.95999 58.6918 9.63849C58.8442 9.31368 58.9205 8.94744 58.9205 8.53977C58.9205 8.1321 58.8442 7.76752 58.6918 7.44602C58.5426 7.12453 58.3007 6.87263 57.9659 6.69034C57.6312 6.50473 57.187 6.41193 56.6335 6.41193H54.4659V15.5H53.233ZM64.2077 15.679C63.7238 15.679 63.2847 15.5878 62.8903 15.4055C62.4959 15.2199 62.1826 14.9531 61.9506 14.6051C61.7186 14.2538 61.6026 13.8295 61.6026 13.3324C61.6026 12.8949 61.6888 12.5402 61.8612 12.2685C62.0335 11.9934 62.2638 11.7779 62.5522 11.6222C62.8406 11.4664 63.1587 11.3504 63.5067 11.2741C63.8581 11.1946 64.2111 11.1316 64.5657 11.0852C65.0297 11.0256 65.4059 10.9808 65.6942 10.951C65.9859 10.9179 66.198 10.8632 66.3306 10.7869C66.4665 10.7107 66.5344 10.5781 66.5344 10.3892V10.3494C66.5344 9.8589 66.4002 9.47775 66.1317 9.20597C65.8666 8.93419 65.4639 8.7983 64.9237 8.7983C64.3635 8.7983 63.9244 8.92093 63.6062 9.16619C63.288 9.41146 63.0643 9.6733 62.935 9.9517L61.8214 9.55398C62.0202 9.08996 62.2854 8.72869 62.6168 8.47017C62.9516 8.20833 63.3162 8.02604 63.7106 7.9233C64.1083 7.81723 64.4994 7.7642 64.8839 7.7642C65.1291 7.7642 65.4109 7.79403 65.729 7.85369C66.0505 7.91004 66.3604 8.0277 66.6587 8.20668C66.9603 8.38565 67.2106 8.65578 67.4094 9.01705C67.6083 9.37831 67.7077 9.86222 67.7077 10.4688V15.5H66.5344V14.4659H66.4748C66.3952 14.6316 66.2627 14.8089 66.0771 14.9979C65.8915 15.1868 65.6445 15.3475 65.3363 15.4801C65.0281 15.6127 64.6519 15.679 64.2077 15.679ZM64.3867 14.625C64.8507 14.625 65.2418 14.5339 65.56 14.3516C65.8815 14.1693 66.1235 13.9339 66.2859 13.6456C66.4516 13.3572 66.5344 13.054 66.5344 12.7358V11.6619C66.4847 11.7216 66.3754 11.7763 66.2063 11.826C66.0406 11.8724 65.8484 11.9138 65.6296 11.9503C65.4142 11.9834 65.2037 12.0133 64.9982 12.0398C64.796 12.063 64.632 12.0829 64.506 12.0994C64.2011 12.1392 63.9161 12.2038 63.6509 12.2933C63.3891 12.3795 63.177 12.5104 63.0146 12.6861C62.8555 12.8584 62.7759 13.0937 62.7759 13.392C62.7759 13.7997 62.9267 14.108 63.2283 14.3168C63.5333 14.5223 63.9194 14.625 64.3867 14.625ZM69.372 13.5511H70.6248C70.6513 13.8958 70.8071 14.1577 71.0922 14.3366C71.3805 14.5156 71.755 14.6051 72.2157 14.6051C72.6864 14.6051 73.0891 14.509 73.4238 14.3168C73.7586 14.1212 73.926 13.8063 73.926 13.3722C73.926 13.117 73.863 12.8949 73.737 12.706C73.6111 12.5137 73.4338 12.3646 73.2051 12.2585C72.9764 12.1525 72.7063 12.0994 72.3947 12.0994H71.0822V11.0455H72.3947C72.862 11.0455 73.2067 10.9394 73.4288 10.7273C73.6542 10.5152 73.7669 10.25 73.7669 9.93182C73.7669 9.59044 73.6459 9.317 73.4039 9.11151C73.162 8.9027 72.819 8.7983 72.3748 8.7983C71.9274 8.7983 71.5545 8.89938 71.2562 9.10156C70.9579 9.30043 70.8005 9.55729 70.7839 9.87216H69.551C69.5642 9.46117 69.6902 9.09825 69.9288 8.78338C70.1674 8.4652 70.4922 8.21662 70.9032 8.03764C71.3142 7.85535 71.7849 7.7642 72.3152 7.7642C72.8521 7.7642 73.3178 7.85866 73.7122 8.04758C74.1099 8.23319 74.4165 8.48674 74.6319 8.80824C74.8507 9.12642 74.96 9.48769 74.96 9.89205C74.96 10.3229 74.8391 10.6709 74.5971 10.9361C74.3552 11.2012 74.0519 11.3902 73.6873 11.5028V11.5824C73.9757 11.6023 74.2259 11.6951 74.438 11.8608C74.6535 12.0232 74.8208 12.237 74.9402 12.5021C75.0595 12.764 75.1191 13.054 75.1191 13.3722C75.1191 13.8362 74.9949 14.2405 74.7463 14.5852C74.4977 14.9266 74.1563 15.1918 73.7221 15.3807C73.2879 15.5663 72.7924 15.6591 72.2356 15.6591C71.6954 15.6591 71.2115 15.5713 70.7839 15.3956C70.3564 15.2166 70.0166 14.9697 69.7647 14.6548C69.5162 14.3366 69.3852 13.9688 69.372 13.5511ZM76.7672 18.3636V7.86364H77.9007V9.0767H78.04C78.1261 8.94413 78.2454 8.77509 78.3979 8.5696C78.5537 8.3608 78.7757 8.17519 79.0641 8.01278C79.3558 7.84706 79.7502 7.7642 80.2473 7.7642C80.8903 7.7642 81.4571 7.92495 81.9476 8.24645C82.4382 8.56794 82.821 9.02367 83.0961 9.61364C83.3712 10.2036 83.5087 10.8996 83.5087 11.7017C83.5087 12.5104 83.3712 13.2114 83.0961 13.8047C82.821 14.3946 82.4398 14.852 81.9526 15.1768C81.4654 15.4983 80.9036 15.6591 80.2672 15.6591C79.7767 15.6591 79.3839 15.5779 79.089 15.4155C78.794 15.2498 78.5669 15.0625 78.4078 14.8537C78.2488 14.6416 78.1261 14.4659 78.04 14.3267H77.9405V18.3636H76.7672ZM77.9206 11.6818C77.9206 12.2585 78.0051 12.7673 78.1742 13.2081C78.3432 13.6456 78.5901 13.9886 78.915 14.2372C79.2398 14.4825 79.6375 14.6051 80.1081 14.6051C80.5987 14.6051 81.008 14.4759 81.3361 14.2173C81.6676 13.9555 81.9161 13.6042 82.0819 13.1634C82.2509 12.7192 82.3354 12.2254 82.3354 11.6818C82.3354 11.1449 82.2525 10.661 82.0868 10.2301C81.9244 9.79593 81.6775 9.45289 81.3461 9.20099C81.0179 8.94579 80.6053 8.81818 80.1081 8.81818C79.6309 8.81818 79.2298 8.93916 78.905 9.18111C78.5802 9.41974 78.3349 9.7545 78.1692 10.1854C78.0035 10.6129 77.9206 11.1117 77.9206 11.6818ZM87.5456 15.679C87.0617 15.679 86.6226 15.5878 86.2282 15.4055C85.8337 15.2199 85.5205 14.9531 85.2885 14.6051C85.0565 14.2538 84.9405 13.8295 84.9405 13.3324C84.9405 12.8949 85.0267 12.5402 85.199 12.2685C85.3714 11.9934 85.6017 11.7779 85.8901 11.6222C86.1784 11.4664 86.4966 11.3504 86.8446 11.2741C87.196 11.1946 87.5489 11.1316 87.9036 11.0852C88.3676 11.0256 88.7438 10.9808 89.0321 10.951C89.3238 10.9179 89.5359 10.8632 89.6685 10.7869C89.8044 10.7107 89.8723 10.5781 89.8723 10.3892V10.3494C89.8723 9.8589 89.7381 9.47775 89.4696 9.20597C89.2045 8.93419 88.8018 8.7983 88.2615 8.7983C87.7014 8.7983 87.2623 8.92093 86.9441 9.16619C86.6259 9.41146 86.4022 9.6733 86.2729 9.9517L85.1593 9.55398C85.3581 9.08996 85.6233 8.72869 85.9547 8.47017C86.2895 8.20833 86.6541 8.02604 87.0485 7.9233C87.4462 7.81723 87.8373 7.7642 88.2218 7.7642C88.467 7.7642 88.7488 7.79403 89.0669 7.85369C89.3884 7.91004 89.6983 8.0277 89.9966 8.20668C90.2982 8.38565 90.5485 8.65578 90.7473 9.01705C90.9462 9.37831 91.0456 9.86222 91.0456 10.4688V15.5H89.8723V14.4659H89.8127C89.7331 14.6316 89.6006 14.8089 89.415 14.9979C89.2293 15.1868 88.9824 15.3475 88.6742 15.4801C88.3659 15.6127 87.9898 15.679 87.5456 15.679ZM87.7246 14.625C88.1886 14.625 88.5797 14.5339 88.8979 14.3516C89.2194 14.1693 89.4614 13.9339 89.6238 13.6456C89.7895 13.3572 89.8723 13.054 89.8723 12.7358V11.6619C89.8226 11.7216 89.7132 11.7763 89.5442 11.826C89.3785 11.8724 89.1863 11.9138 88.9675 11.9503C88.7521 11.9834 88.5416 12.0133 88.3361 12.0398C88.1339 12.063 87.9699 12.0829 87.8439 12.0994C87.539 12.1392 87.254 12.2038 86.9888 12.2933C86.727 12.3795 86.5149 12.5104 86.3525 12.6861C86.1934 12.8584 86.1138 13.0937 86.1138 13.392C86.1138 13.7997 86.2646 14.108 86.5662 14.3168C86.8712 14.5223 87.2573 14.625 87.7246 14.625ZM98.8548 5L99.4513 5.71591C99.2193 5.94129 98.9509 6.09872 98.646 6.18821C98.341 6.2777 97.9963 6.33239 97.6119 6.35227C97.2274 6.37216 96.7998 6.39205 96.3292 6.41193C95.7989 6.43182 95.3597 6.56108 95.0117 6.79972C94.6637 7.03835 94.3952 7.38305 94.2063 7.83381C94.0174 8.28456 93.8964 8.83807 93.8434 9.49432H93.9428C94.2013 9.01705 94.5593 8.66572 95.0167 8.44034C95.4741 8.21496 95.9646 8.10227 96.4883 8.10227C97.0849 8.10227 97.6218 8.24148 98.0991 8.51989C98.5763 8.7983 98.9542 9.21094 99.2326 9.75781C99.511 10.3047 99.6502 10.9792 99.6502 11.7812C99.6502 12.58 99.5077 13.2694 99.2227 13.8494C98.9409 14.4295 98.5449 14.8769 98.0344 15.1918C97.5273 15.5033 96.9324 15.6591 96.2496 15.6591C95.5669 15.6591 94.9686 15.4983 94.4549 15.1768C93.9412 14.852 93.5418 14.3714 93.2567 13.7351C92.9717 13.0954 92.8292 12.3049 92.8292 11.3636V10.5483C92.8292 8.84801 93.1175 7.55871 93.6942 6.6804C94.2743 5.80208 95.146 5.34801 96.3093 5.31818C96.7203 5.30492 97.0865 5.30161 97.408 5.30824C97.7295 5.31487 98.0096 5.29995 98.2482 5.26349C98.4869 5.22704 98.689 5.1392 98.8548 5ZM96.2496 14.6051C96.7103 14.6051 97.1064 14.4891 97.4379 14.2571C97.7726 14.0251 98.0295 13.6986 98.2085 13.2777C98.3874 12.8535 98.4769 12.3546 98.4769 11.7812C98.4769 11.2244 98.3858 10.7505 98.2035 10.3594C98.0245 9.96828 97.7676 9.66998 97.4329 9.46449C97.0981 9.259 96.6971 9.15625 96.2298 9.15625C95.8884 9.15625 95.5818 9.21425 95.31 9.33026C95.0382 9.44626 94.8062 9.61695 94.614 9.84233C94.4218 10.0677 94.2726 10.3428 94.1665 10.6676C94.0638 10.9924 94.0091 11.3636 94.0025 11.7812C94.0025 12.6364 94.203 13.3208 94.604 13.8345C95.0051 14.3482 95.5536 14.6051 96.2496 14.6051ZM104.547 15.6591C103.858 15.6591 103.253 15.495 102.733 15.1669C102.216 14.8388 101.811 14.3797 101.52 13.7898C101.231 13.1998 101.087 12.5104 101.087 11.7216C101.087 10.9261 101.231 10.2318 101.52 9.63849C101.811 9.04522 102.216 8.58452 102.733 8.25639C103.253 7.92827 103.858 7.7642 104.547 7.7642C105.237 7.7642 105.84 7.92827 106.357 8.25639C106.877 8.58452 107.282 9.04522 107.57 9.63849C107.862 10.2318 108.007 10.9261 108.007 11.7216C108.007 12.5104 107.862 13.1998 107.57 13.7898C107.282 14.3797 106.877 14.8388 106.357 15.1669C105.84 15.495 105.237 15.6591 104.547 15.6591ZM104.547 14.6051C105.071 14.6051 105.502 14.4709 105.84 14.2024C106.178 13.9339 106.428 13.581 106.591 13.1435C106.753 12.706 106.834 12.232 106.834 11.7216C106.834 11.2112 106.753 10.7356 106.591 10.2947C106.428 9.85393 106.178 9.49763 105.84 9.22585C105.502 8.95407 105.071 8.81818 104.547 8.81818C104.024 8.81818 103.593 8.95407 103.255 9.22585C102.917 9.49763 102.666 9.85393 102.504 10.2947C102.342 10.7356 102.26 11.2112 102.26 11.7216C102.26 12.232 102.342 12.706 102.504 13.1435C102.666 13.581 102.917 13.9339 103.255 14.2024C103.593 14.4709 104.024 14.6051 104.547 14.6051ZM108.8 8.95739V7.86364H115.005V8.95739H112.499V15.5H111.326V8.95739H108.8ZM116.716 15.5V7.86364H117.89V11.1847H118.665L121.41 7.86364H122.921L119.839 11.5426L122.961 15.5H121.449L118.944 12.2784H117.89V15.5H116.716ZM126.483 15.679C125.999 15.679 125.56 15.5878 125.166 15.4055C124.771 15.2199 124.458 14.9531 124.226 14.6051C123.994 14.2538 123.878 13.8295 123.878 13.3324C123.878 12.8949 123.964 12.5402 124.137 12.2685C124.309 11.9934 124.539 11.7779 124.828 11.6222C125.116 11.4664 125.434 11.3504 125.782 11.2741C126.133 11.1946 126.486 11.1316 126.841 11.0852C127.305 11.0256 127.681 10.9808 127.97 10.951C128.261 10.9179 128.473 10.8632 128.606 10.7869C128.742 10.7107 128.81 10.5781 128.81 10.3892V10.3494C128.81 9.8589 128.676 9.47775 128.407 9.20597C128.142 8.93419 127.739 8.7983 127.199 8.7983C126.639 8.7983 126.2 8.92093 125.882 9.16619C125.563 9.41146 125.34 9.6733 125.21 9.9517L124.097 9.55398C124.296 9.08996 124.561 8.72869 124.892 8.47017C125.227 8.20833 125.592 8.02604 125.986 7.9233C126.384 7.81723 126.775 7.7642 127.159 7.7642C127.405 7.7642 127.686 7.79403 128.004 7.85369C128.326 7.91004 128.636 8.0277 128.934 8.20668C129.236 8.38565 129.486 8.65578 129.685 9.01705C129.884 9.37831 129.983 9.86222 129.983 10.4688V15.5H128.81V14.4659H128.75C128.671 14.6316 128.538 14.8089 128.352 14.9979C128.167 15.1868 127.92 15.3475 127.612 15.4801C127.303 15.6127 126.927 15.679 126.483 15.679ZM126.662 14.625C127.126 14.625 127.517 14.5339 127.835 14.3516C128.157 14.1693 128.399 13.9339 128.561 13.6456C128.727 13.3572 128.81 13.054 128.81 12.7358V11.6619C128.76 11.7216 128.651 11.7763 128.482 11.826C128.316 11.8724 128.124 11.9138 127.905 11.9503C127.69 11.9834 127.479 12.0133 127.274 12.0398C127.071 12.063 126.907 12.0829 126.781 12.0994C126.477 12.1392 126.191 12.2038 125.926 12.2933C125.664 12.3795 125.452 12.5104 125.29 12.6861C125.131 12.8584 125.051 13.0937 125.051 13.392C125.051 13.7997 125.202 14.108 125.504 14.3168C125.809 14.5223 126.195 14.625 126.662 14.625ZM139.164 15.6591C138.449 15.6591 137.832 15.4901 137.315 15.152C136.798 14.8139 136.4 14.3482 136.122 13.755C135.843 13.1617 135.704 12.4839 135.704 11.7216C135.704 10.946 135.847 10.2616 136.132 9.66832C136.42 9.07173 136.821 8.60606 137.335 8.27131C137.852 7.93324 138.455 7.7642 139.145 7.7642C139.681 7.7642 140.165 7.86364 140.596 8.0625C141.027 8.26136 141.38 8.53977 141.655 8.89773C141.93 9.25568 142.101 9.6733 142.167 10.1506H140.994C140.904 9.80256 140.706 9.49432 140.397 9.22585C140.092 8.95407 139.681 8.81818 139.164 8.81818C138.707 8.81818 138.306 8.9375 137.961 9.17614C137.62 9.41146 137.353 9.74455 137.161 10.1754C136.972 10.603 136.877 11.1051 136.877 11.6818C136.877 12.2718 136.97 12.7855 137.156 13.223C137.345 13.6605 137.61 14.0002 137.951 14.2422C138.296 14.4841 138.7 14.6051 139.164 14.6051C139.469 14.6051 139.746 14.5521 139.995 14.446C140.243 14.34 140.454 14.1875 140.626 13.9886C140.798 13.7898 140.921 13.5511 140.994 13.2727H142.167C142.101 13.7235 141.937 14.1295 141.675 14.4908C141.417 14.8487 141.074 15.1338 140.646 15.3459C140.222 15.5547 139.728 15.6591 139.164 15.6591ZM146.13 15.679C145.646 15.679 145.207 15.5878 144.812 15.4055C144.418 15.2199 144.105 14.9531 143.873 14.6051C143.641 14.2538 143.525 13.8295 143.525 13.3324C143.525 12.8949 143.611 12.5402 143.783 12.2685C143.955 11.9934 144.186 11.7779 144.474 11.6222C144.762 11.4664 145.081 11.3504 145.429 11.2741C145.78 11.1946 146.133 11.1316 146.488 11.0852C146.952 11.0256 147.328 10.9808 147.616 10.951C147.908 10.9179 148.12 10.8632 148.252 10.7869C148.388 10.7107 148.456 10.5781 148.456 10.3892V10.3494C148.456 9.8589 148.322 9.47775 148.054 9.20597C147.788 8.93419 147.386 8.7983 146.846 8.7983C146.285 8.7983 145.846 8.92093 145.528 9.16619C145.21 9.41146 144.986 9.6733 144.857 9.9517L143.743 9.55398C143.942 9.08996 144.207 8.72869 144.539 8.47017C144.873 8.20833 145.238 8.02604 145.632 7.9233C146.03 7.81723 146.421 7.7642 146.806 7.7642C147.051 7.7642 147.333 7.79403 147.651 7.85369C147.972 7.91004 148.282 8.0277 148.581 8.20668C148.882 8.38565 149.132 8.65578 149.331 9.01705C149.53 9.37831 149.63 9.86222 149.63 10.4688V15.5H148.456V14.4659H148.397C148.317 14.6316 148.185 14.8089 147.999 14.9979C147.813 15.1868 147.566 15.3475 147.258 15.4801C146.95 15.6127 146.574 15.679 146.13 15.679ZM146.309 14.625C146.773 14.625 147.164 14.5339 147.482 14.3516C147.803 14.1693 148.045 13.9339 148.208 13.6456C148.373 13.3572 148.456 13.054 148.456 12.7358V11.6619C148.407 11.7216 148.297 11.7763 148.128 11.826C147.962 11.8724 147.77 11.9138 147.551 11.9503C147.336 11.9834 147.126 12.0133 146.92 12.0398C146.718 12.063 146.554 12.0829 146.428 12.0994C146.123 12.1392 145.838 12.2038 145.573 12.2933C145.311 12.3795 145.099 12.5104 144.936 12.6861C144.777 12.8584 144.698 13.0937 144.698 13.392C144.698 13.7997 144.849 14.108 145.15 14.3168C145.455 14.5223 145.841 14.625 146.309 14.625ZM152.944 13.7699L156.623 7.86364H157.976V15.5H156.802V9.59375L153.143 15.5H151.771V7.86364H152.944V13.7699ZM155.848 5.31818H156.942C156.942 5.85511 156.756 6.29427 156.385 6.63565C156.014 6.97704 155.51 7.14773 154.873 7.14773C154.247 7.14773 153.748 6.97704 153.377 6.63565C153.009 6.29427 152.825 5.85511 152.825 5.31818H153.919C153.919 5.5767 153.99 5.80374 154.133 5.99929C154.278 6.19484 154.525 6.29261 154.873 6.29261C155.221 6.29261 155.47 6.19484 155.619 5.99929C155.772 5.80374 155.848 5.5767 155.848 5.31818ZM159.086 8.95739V7.86364H165.29V8.95739H162.784V15.5H161.611V8.95739H159.086ZM168.852 15.679C168.368 15.679 167.929 15.5878 167.535 15.4055C167.14 15.2199 166.827 14.9531 166.595 14.6051C166.363 14.2538 166.247 13.8295 166.247 13.3324C166.247 12.8949 166.333 12.5402 166.506 12.2685C166.678 11.9934 166.908 11.7779 167.197 11.6222C167.485 11.4664 167.803 11.3504 168.151 11.2741C168.503 11.1946 168.856 11.1316 169.21 11.0852C169.674 11.0256 170.05 10.9808 170.339 10.951C170.63 10.9179 170.843 10.8632 170.975 10.7869C171.111 10.7107 171.179 10.5781 171.179 10.3892V10.3494C171.179 9.8589 171.045 9.47775 170.776 9.20597C170.511 8.93419 170.108 8.7983 169.568 8.7983C169.008 8.7983 168.569 8.92093 168.251 9.16619C167.933 9.41146 167.709 9.6733 167.58 9.9517L166.466 9.55398C166.665 9.08996 166.93 8.72869 167.261 8.47017C167.596 8.20833 167.961 8.02604 168.355 7.9233C168.753 7.81723 169.144 7.7642 169.528 7.7642C169.774 7.7642 170.055 7.79403 170.374 7.85369C170.695 7.91004 171.005 8.0277 171.303 8.20668C171.605 8.38565 171.855 8.65578 172.054 9.01705C172.253 9.37831 172.352 9.86222 172.352 10.4688V15.5H171.179V14.4659H171.119C171.04 14.6316 170.907 14.8089 170.722 14.9979C170.536 15.1868 170.289 15.3475 169.981 15.4801C169.673 15.6127 169.296 15.679 168.852 15.679ZM169.031 14.625C169.495 14.625 169.886 14.5339 170.205 14.3516C170.526 14.1693 170.768 13.9339 170.93 13.6456C171.096 13.3572 171.179 13.054 171.179 12.7358V11.6619C171.129 11.7216 171.02 11.7763 170.851 11.826C170.685 11.8724 170.493 11.9138 170.274 11.9503C170.059 11.9834 169.848 12.0133 169.643 12.0398C169.441 12.063 169.277 12.0829 169.151 12.0994C168.846 12.1392 168.561 12.2038 168.295 12.2933C168.034 12.3795 167.821 12.5104 167.659 12.6861C167.5 12.8584 167.42 13.0937 167.42 13.392C167.42 13.7997 167.571 14.108 167.873 14.3168C168.178 14.5223 168.564 14.625 169.031 14.625ZM175.349 15.5795C175.104 15.5795 174.893 15.4917 174.718 15.3161C174.542 15.1404 174.454 14.9299 174.454 14.6847C174.454 14.4394 174.542 14.2289 174.718 14.0533C174.893 13.8776 175.104 13.7898 175.349 13.7898C175.594 13.7898 175.805 13.8776 175.98 14.0533C176.156 14.2289 176.244 14.4394 176.244 14.6847C176.244 14.8471 176.202 14.9962 176.119 15.1321C176.04 15.268 175.932 15.3774 175.796 15.4602C175.664 15.5398 175.515 15.5795 175.349 15.5795ZM175.349 9.91193C175.104 9.91193 174.893 9.8241 174.718 9.64844C174.542 9.47277 174.454 9.26231 174.454 9.01705C174.454 8.77178 174.542 8.56132 174.718 8.38565C174.893 8.20999 175.104 8.12216 175.349 8.12216C175.594 8.12216 175.805 8.20999 175.98 8.38565C176.156 8.56132 176.244 8.77178 176.244 9.01705C176.244 9.17945 176.202 9.3286 176.119 9.46449C176.04 9.60038 175.932 9.70975 175.796 9.79261C175.664 9.87216 175.515 9.91193 175.349 9.91193ZM182.446 15.5V5.31818H186.006C186.715 5.31818 187.3 5.44081 187.76 5.68608C188.221 5.92803 188.564 6.2545 188.79 6.66548C189.015 7.07315 189.128 7.52557 189.128 8.02273C189.128 8.46023 189.05 8.8215 188.894 9.10653C188.742 9.39157 188.539 9.61695 188.287 9.78267C188.039 9.94839 187.769 10.071 187.477 10.1506V10.25C187.789 10.2699 188.102 10.3793 188.417 10.5781C188.732 10.777 188.995 11.062 189.207 11.4332C189.419 11.8045 189.525 12.2585 189.525 12.7955C189.525 13.3059 189.409 13.7649 189.177 14.1726C188.945 14.5803 188.579 14.9034 188.079 15.142C187.578 15.3807 186.927 15.5 186.125 15.5H182.446ZM183.679 14.4062H186.125C186.93 14.4062 187.502 14.2505 187.84 13.9389C188.181 13.6241 188.352 13.2429 188.352 12.7955C188.352 12.4508 188.264 12.1326 188.089 11.8409C187.913 11.5459 187.663 11.3106 187.338 11.1349C187.013 10.956 186.629 10.8665 186.184 10.8665H183.679V14.4062ZM183.679 9.79261H185.966C186.337 9.79261 186.672 9.7197 186.97 9.57386C187.272 9.42803 187.51 9.22254 187.686 8.95739C187.865 8.69223 187.954 8.38068 187.954 8.02273C187.954 7.57528 187.799 7.19579 187.487 6.88423C187.175 6.56937 186.682 6.41193 186.006 6.41193H183.679V9.79261ZM194.594 15.6591C193.858 15.6591 193.223 15.4967 192.69 15.1719C192.16 14.8438 191.75 14.3864 191.462 13.7997C191.177 13.2098 191.034 12.5237 191.034 11.7415C191.034 10.9593 191.177 10.2699 191.462 9.6733C191.75 9.07339 192.151 8.60606 192.665 8.27131C193.182 7.93324 193.785 7.7642 194.475 7.7642C194.872 7.7642 195.265 7.83049 195.653 7.96307C196.041 8.09564 196.394 8.31108 196.712 8.60938C197.03 8.90436 197.284 9.29545 197.472 9.78267C197.661 10.2699 197.756 10.8698 197.756 11.5824V12.0795H191.869V11.0653H196.563C196.563 10.6345 196.477 10.25 196.304 9.91193C196.135 9.57386 195.893 9.30705 195.578 9.11151C195.267 8.91596 194.899 8.81818 194.475 8.81818C194.007 8.81818 193.603 8.93419 193.262 9.16619C192.923 9.39489 192.663 9.69318 192.481 10.0611C192.299 10.429 192.208 10.8234 192.208 11.2443V11.9205C192.208 12.4972 192.307 12.986 192.506 13.3871C192.708 13.7848 192.988 14.0881 193.346 14.2969C193.704 14.5024 194.12 14.6051 194.594 14.6051C194.902 14.6051 195.181 14.562 195.429 14.4759C195.681 14.3864 195.898 14.2538 196.08 14.0781C196.263 13.8991 196.404 13.6771 196.503 13.4119L197.637 13.7301C197.517 14.1146 197.317 14.4527 197.035 14.7443C196.753 15.0327 196.405 15.258 195.991 15.4205C195.577 15.5795 195.111 15.6591 194.594 15.6591ZM205.208 5L205.805 5.71591C205.573 5.94129 205.304 6.09872 204.999 6.18821C204.695 6.2777 204.35 6.33239 203.965 6.35227C203.581 6.37216 203.153 6.39205 202.683 6.41193C202.152 6.43182 201.713 6.56108 201.365 6.79972C201.017 7.03835 200.749 7.38305 200.56 7.83381C200.371 8.28456 200.25 8.83807 200.197 9.49432H200.296C200.555 9.01705 200.913 8.66572 201.37 8.44034C201.828 8.21496 202.318 8.10227 202.842 8.10227C203.438 8.10227 203.975 8.24148 204.453 8.51989C204.93 8.7983 205.308 9.21094 205.586 9.75781C205.865 10.3047 206.004 10.9792 206.004 11.7812C206.004 12.58 205.861 13.2694 205.576 13.8494C205.294 14.4295 204.898 14.8769 204.388 15.1918C203.881 15.5033 203.286 15.6591 202.603 15.6591C201.92 15.6591 201.322 15.4983 200.808 15.1768C200.295 14.852 199.895 14.3714 199.61 13.7351C199.325 13.0954 199.183 12.3049 199.183 11.3636V10.5483C199.183 8.84801 199.471 7.55871 200.048 6.6804C200.628 5.80208 201.499 5.34801 202.663 5.31818C203.074 5.30492 203.44 5.30161 203.762 5.30824C204.083 5.31487 204.363 5.29995 204.602 5.26349C204.84 5.22704 205.043 5.1392 205.208 5ZM202.603 14.6051C203.064 14.6051 203.46 14.4891 203.791 14.2571C204.126 14.0251 204.383 13.6986 204.562 13.2777C204.741 12.8535 204.83 12.3546 204.83 11.7812C204.83 11.2244 204.739 10.7505 204.557 10.3594C204.378 9.96828 204.121 9.66998 203.786 9.46449C203.452 9.259 203.051 9.15625 202.583 9.15625C202.242 9.15625 201.935 9.21425 201.664 9.33026C201.392 9.44626 201.16 9.61695 200.968 9.84233C200.775 10.0677 200.626 10.3428 200.52 10.6676C200.417 10.9924 200.363 11.3636 200.356 11.7812C200.356 12.6364 200.557 13.3208 200.958 13.8345C201.359 14.3482 201.907 14.6051 202.603 14.6051ZM212.173 10.5881V11.6818H207.719V10.5881H212.173ZM217.34 15.6591C216.624 15.6591 216.008 15.4901 215.491 15.152C214.974 14.8139 214.576 14.3482 214.298 13.755C214.019 13.1617 213.88 12.4839 213.88 11.7216C213.88 10.946 214.022 10.2616 214.308 9.66832C214.596 9.07173 214.997 8.60606 215.511 8.27131C216.028 7.93324 216.631 7.7642 217.32 7.7642C217.857 7.7642 218.341 7.86364 218.772 8.0625C219.203 8.26136 219.556 8.53977 219.831 8.89773C220.106 9.25568 220.277 9.6733 220.343 10.1506H219.17C219.08 9.80256 218.881 9.49432 218.573 9.22585C218.268 8.95407 217.857 8.81818 217.34 8.81818C216.883 8.81818 216.482 8.9375 216.137 9.17614C215.796 9.41146 215.529 9.74455 215.337 10.1754C215.148 10.603 215.053 11.1051 215.053 11.6818C215.053 12.2718 215.146 12.7855 215.332 13.223C215.521 13.6605 215.786 14.0002 216.127 14.2422C216.472 14.4841 216.876 14.6051 217.34 14.6051C217.645 14.6051 217.922 14.5521 218.17 14.446C218.419 14.34 218.629 14.1875 218.802 13.9886C218.974 13.7898 219.097 13.5511 219.17 13.2727H220.343C220.277 13.7235 220.113 14.1295 219.851 14.4908C219.592 14.8487 219.249 15.1338 218.822 15.3459C218.397 15.5547 217.904 15.6591 217.34 15.6591ZM221.457 8.95739V7.86364H227.661V8.95739H225.156V15.5H223.982V8.95739H221.457ZM230.128 18.3636C229.93 18.3636 229.752 18.3471 229.596 18.3139C229.441 18.2841 229.333 18.2543 229.273 18.2244L229.572 17.1903C229.857 17.2633 230.108 17.2898 230.327 17.2699C230.546 17.25 230.74 17.1522 230.909 16.9766C231.081 16.8042 231.239 16.5241 231.381 16.1364L231.6 15.5398L228.776 7.86364H230.049L232.157 13.9489H232.236L234.344 7.86364H235.617L232.376 16.6136C232.23 17.008 232.049 17.3345 231.834 17.593C231.618 17.8549 231.368 18.0488 231.083 18.1747C230.801 18.3007 230.483 18.3636 230.128 18.3636ZM235.708 17.6875V14.4062H236.344C236.5 14.2438 236.634 14.0682 236.747 13.8793C236.859 13.6903 236.957 13.4666 237.04 13.2081C237.126 12.9463 237.199 12.6281 237.259 12.2536C237.319 11.8757 237.372 11.42 237.418 10.8864L237.676 7.86364H242.529V14.4062H243.702V17.6875H242.529V15.5H236.881V17.6875H235.708ZM237.676 14.4062H241.355V8.95739H238.77L238.571 10.8864C238.489 11.6851 238.386 12.3828 238.263 12.9794C238.141 13.576 237.945 14.0516 237.676 14.4062ZM246.433 13.7699L250.112 7.86364H251.464V15.5H250.291V9.59375L246.632 15.5H245.259V7.86364H246.433V13.7699ZM258.207 15.5V8.9375H256.178C255.721 8.9375 255.361 9.04356 255.099 9.25568C254.838 9.4678 254.707 9.75947 254.707 10.1307C254.707 10.4953 254.824 10.782 255.06 10.9908C255.298 11.1996 255.625 11.304 256.039 11.304H258.505V12.3977H256.039C255.522 12.3977 255.076 12.3066 254.702 12.1243C254.327 11.942 254.039 11.6818 253.837 11.3438C253.634 11.0024 253.533 10.598 253.533 10.1307C253.533 9.66004 253.639 9.25568 253.852 8.91761C254.064 8.57955 254.367 8.31937 254.761 8.13707C255.159 7.95478 255.631 7.86364 256.178 7.86364H259.32V15.5H258.207ZM253.116 15.5L255.283 11.7017H256.556L254.388 15.5H253.116ZM265.571 15.5V5.31818H271.716V6.41193H266.804V9.59375H269.389C270.118 9.59375 270.733 9.71307 271.233 9.9517C271.737 10.1903 272.118 10.5268 272.377 10.9609C272.639 11.3951 272.77 11.9072 272.77 12.4972C272.77 13.0871 272.639 13.6075 272.377 14.0582C272.118 14.509 271.737 14.862 271.233 15.1172C270.733 15.3724 270.118 15.5 269.389 15.5H265.571ZM266.804 14.4261H269.389C269.853 14.4261 270.246 14.3333 270.567 14.1477C270.892 13.9588 271.137 13.7169 271.303 13.4219C271.472 13.1236 271.557 12.8087 271.557 12.4773C271.557 11.9901 271.369 11.5708 270.995 11.2195C270.62 10.8648 270.085 10.6875 269.389 10.6875H266.804V14.4261ZM274.799 5.31818H276.012V13.3324H276.112L281.68 5.31818H282.873V15.5H281.64V7.50568H281.541L275.993 15.5H274.799V5.31818ZM284.784 6.41193V5.31818H292.42V6.41193H289.218V15.5H287.985V6.41193H284.784ZM294.323 15.5V5.31818H297.763C298.562 5.31818 299.215 5.46236 299.722 5.75071C300.232 6.03575 300.61 6.42188 300.855 6.90909C301.101 7.39631 301.223 7.93987 301.223 8.53977C301.223 9.13968 301.101 9.6849 300.855 10.1754C300.614 10.666 300.239 11.0571 299.732 11.3487C299.225 11.6371 298.575 11.7812 297.783 11.7812H295.317V10.6875H297.743C298.29 10.6875 298.729 10.593 299.061 10.4041C299.392 10.2152 299.632 9.95999 299.782 9.63849C299.934 9.31368 300.01 8.94744 300.01 8.53977C300.01 8.1321 299.934 7.76752 299.782 7.44602C299.632 7.12453 299.391 6.87263 299.056 6.69034C298.721 6.50473 298.277 6.41193 297.723 6.41193H295.556V15.5H294.323ZM303.746 15.6392V14.4858H304.383C304.628 14.4858 304.834 14.4377 304.999 14.3416C305.168 14.2455 305.308 14.1212 305.417 13.9688C305.53 13.8163 305.622 13.6572 305.695 13.4915L305.854 13.1136L302.335 5.31818H303.667L306.471 11.642L309.036 5.31818H310.349L306.829 13.8494C306.69 14.1676 306.531 14.4626 306.352 14.7344C306.176 15.0062 305.936 15.2249 305.631 15.3906C305.329 15.5563 304.92 15.6392 304.403 15.6392H303.746Z" fill="white"/>
<defs>
<clipPath id="clip0_1_122">
<rect width="40" height="20" fill="white" transform="translate(0 0.5)"/>
</clipPath>
</defs>
</svg>
